<svg width="256" height="256" viewBox="0 0 256 256" xmlns="http://www.w3.org/2000/svg">
  <path fill="#000000" d="M186.2,135.2c0.1,28.7,25.2,38.3,25.4,38.4c-0.2,0.7-4,13.8-13.2,27.3
  c-8,11.7-16.3,23.4-29.4,23.6c-12.9,0.2-17-7.6-31.7-7.6c-14.7,0-19.2,7.4-31.3,7.8c-12.6,0.5-22.2-12.7-30.3-24.3
  c-16.5-23.8-29.1-67.2-12.2-96.6c8.4-14.6,23.4-23.8,39.7-24c12.4-0.2,24.1,8.3,31.7,8.3c7.6,0,21.9-10.2,37-8.7
  c6.3,0.3,24,2.5,35.4,19c-0.9,0.6-21.2,12.4-21,37z"/>
  <path fill="#000000" d="M160.5,61.1c6.7-8.1,11.2-19.4,10-30.6c-9.6,0.4-21.2,6.4-28.1,14.5
  c-6.2,7.1-11.6,18.6-10.1,29.6C143,75.4,153.8,69.2,160.5,61.1z"/>
</svg>