<svg width="256" height="262" viewBox="0 0 256 262" xmlns="http://www.w3.org/2000/svg">
  <path d="M255.878 133.451c0-11.045-.99-22.09-3.135-32.877H130.55v62.21h70.603c-3.043 16.99-12.814 31.392-27.535 41.069v34.607h44.53c26.06-24.004 41.73-59.43 41.73-105.01z" fill="#4285F4"/>
  <path d="M130.55 261.1c34.98 0 64.34-11.59 85.79-31.64l-44.53-34.61c-12.36 8.42-28.19 13.16-41.26 13.16-33.86 0-62.55-22.84-72.83-53.64H11.71v35.68C33.66 233.5 79.03 261.1 130.55 261.1z" fill="#34A853"/>
  <path d="M57.72 154.37c-5.42-16.99-5.42-35.24 0-52.23V66.46H11.71c-19.44 38.78-19.44 84.4 0 123.18l46.01-35.27z" fill="#FBBC04"/>
  <path d="M130.55 54.09c19.0-.29 37.33 6.96 51.1 20.24l37.98-37.98C191.67 10.2 162.31-1.1 130.55 0 79.03 0 33.66 27.6 11.71 71.05l46.01 35.68c10.28-30.8 38.97-52.64 72.83-52.64z" fill="#EA4335"/>
</svg>